<svg xmlns="http://www.w3.org/2000/svg" xmlns:xlink="http://www.w3.org/1999/xlink" width="1080" zoomAndPan="magnify" viewBox="0 0 810 809.999993" height="1080" preserveAspectRatio="xMidYMid meet" version="1.0"><defs><clipPath id="d188813987"><path d="M 471 481 L 659.085938 481 L 659.085938 701.914062 L 471 701.914062 Z M 471 481 " clip-rule="nonzero"/></clipPath></defs><path fill="#4a6b5d" d="M 630.035156 645.050781 C 629.960938 647.136719 629.121094 649.46875 627.648438 651.816406 C 624.710938 656.519531 619.054688 661.214844 612.945312 664.273438 C 606.792969 667.398438 600.222656 668.875 595.457031 668.351562 C 593.050781 668.113281 591.078125 667.40625 589.640625 666.347656 C 588.925781 665.8125 588.375 665.175781 587.9375 664.484375 L 586.914062 662.640625 L 582.582031 655.484375 C 576.46875 646.132812 569.285156 637.40625 561.535156 629.007812 C 557.726562 624.769531 553.753906 620.625 550.089844 616.304688 C 546.378906 612.011719 542.882812 607.59375 539.371094 603.179688 C 532.367188 594.351562 525.3125 585.546875 518.988281 576.320312 C 506.539062 557.75 467.359375 498.980469 458.980469 488.890625 L 452.816406 481.246094 L 451.957031 480.117188 C 420.035156 495.425781 381.667969 503.59375 338.644531 505.027344 C 242.738281 508.226562 150.730469 406.550781 152.152344 302.054688 C 153.796875 181.070312 244.859375 122.207031 361.886719 112.808594 C 477.96875 107.902344 554.613281 238.5 551.375 318.496094 C 548.917969 379.246094 527.132812 424.34375 491.042969 454.992188 C 494.269531 458.933594 497.601562 462.8125 500.980469 466.664062 C 505.3125 471.628906 509.804688 476.496094 513.992188 481.546875 C 518.226562 486.566406 522.25 491.710938 526.246094 496.871094 C 534.265625 507.171875 542.382812 517.417969 549.78125 528.082031 C 557.039062 538.828125 564.164062 549.652344 570.695312 560.820312 C 577.3125 571.9375 605.589844 611.238281 612.925781 619.875 C 616.550781 624.21875 620.125 628.59375 623.464844 633.105469 C 625.164062 635.34375 626.828125 637.601562 628.402344 639.914062 C 628.738281 640.40625 629.308594 641.234375 629.628906 642.132812 C 629.957031 643.019531 630.09375 644.003906 630.035156 645.050781 Z M 630.035156 645.050781 " fill-opacity="1" fill-rule="nonzero"/><g clip-path="url(#d188813987)"><path fill="#f3ea58" d="M 655.871094 646.421875 C 656.191406 646.984375 656.546875 647.535156 656.792969 648.140625 C 657.992188 650.472656 658.632812 653.058594 658.992188 655.660156 C 659.199219 656.96875 659.191406 658.289062 659.199219 659.613281 C 659.101562 660.929688 659.019531 662.253906 658.742188 663.554688 C 658.230469 666.148438 657.40625 668.722656 656.09375 671.058594 C 654.792969 673.390625 653.179688 675.574219 651.230469 677.429688 C 650.757812 677.90625 650.222656 678.3125 649.714844 678.753906 L 648.941406 679.398438 L 648.242188 679.925781 L 645.429688 682.023438 L 639.765625 686.164062 C 635.960938 688.882812 632.136719 691.578125 628.261719 694.207031 L 625.359375 696.179688 L 623.90625 697.167969 L 623.179688 697.660156 L 622.347656 698.179688 C 620.140625 699.617188 617.660156 700.597656 615.144531 701.242188 C 613.886719 701.59375 612.59375 701.757812 611.3125 701.910156 C 610.015625 701.953125 608.730469 702.027344 607.453125 701.894531 C 604.902344 701.695312 602.382812 701.15625 600.074219 700.140625 C 597.753906 699.171875 595.617188 697.839844 593.75 696.234375 C 591.917969 694.585938 590.382812 692.679688 589.171875 690.621094 C 584.269531 685.023438 579.539062 679.296875 574.875 673.523438 C 572.535156 670.640625 570.210938 667.746094 567.925781 664.824219 C 565.632812 661.910156 563.320312 659.007812 561.070312 656.054688 L 554.292969 647.234375 L 547.605469 638.34375 C 543.15625 632.410156 538.804688 626.40625 534.589844 620.300781 C 526.15625 608.09375 518.226562 595.515625 509.609375 583.445312 C 501.003906 571.363281 491.960938 559.601562 482.691406 548.007812 L 477.488281 541.480469 C 476.910156 540.757812 476.3125 539.863281 475.726562 539.050781 C 473.542969 535.613281 472.21875 531.59375 471.898438 527.472656 C 471.597656 523.347656 472.398438 519.148438 474.066406 515.320312 C 475.800781 511.519531 478.5 508.144531 481.8125 505.5625 C 487.742188 501.019531 493.636719 496.585938 499.570312 492.113281 L 504.015625 488.773438 L 506.25 487.113281 L 507.378906 486.28125 L 508.710938 485.390625 C 509.578125 484.761719 510.558594 484.320312 511.5 483.816406 C 511.964844 483.550781 512.484375 483.394531 512.972656 483.179688 C 513.472656 482.988281 513.960938 482.769531 514.46875 482.605469 L 516.011719 482.160156 L 516.78125 481.941406 L 517.570312 481.789062 L 519.148438 481.5 C 519.679688 481.429688 520.214844 481.402344 520.746094 481.355469 C 529.265625 480.636719 538.019531 484.515625 543.109375 491.28125 C 543.804688 492.144531 544.296875 492.882812 544.832031 493.640625 L 546.425781 495.921875 L 549.617188 500.480469 L 555.921875 509.648438 C 564.285156 521.90625 592.949219 560.871094 598.832031 568.160156 C 601.753906 571.816406 604.621094 575.515625 607.429688 579.257812 C 610.257812 582.980469 612.988281 586.78125 615.585938 590.675781 C 620.78125 598.46875 625.46875 606.632812 630.847656 614.289062 C 636.199219 621.964844 642.019531 629.296875 648.042969 636.480469 L 652.550781 641.878906 L 653.679688 643.226562 L 654.835938 644.777344 C 655.234375 645.289062 655.542969 645.859375 655.871094 646.421875 Z M 655.871094 646.421875 " fill-opacity="1" fill-rule="nonzero"/></g><path fill="#ddeeff" d="M 507.6875 303.992188 C 507.683594 368.253906 467.222656 422.179688 410.109375 441.9375 C 399.882812 445.472656 389.128906 447.917969 377.972656 449.128906 C 372.691406 449.699219 367.324219 450.007812 361.878906 450.011719 C 258.410156 441.941406 211.84375 394.632812 202.367188 290.5625 C 196.042969 221.066406 286.964844 142.667969 357.441406 145.085938 C 367.425781 145.429688 377.28125 146.882812 386.878906 149.328125 C 402.144531 153.214844 416.761719 159.613281 430.222656 168.042969 C 475.480469 196.390625 507.6875 247.722656 507.6875 303.992188 Z M 507.6875 303.992188 " fill-opacity="1" fill-rule="nonzero"/><path fill="#ffffff" d="M 416.03125 365.125 C 412.632812 396.246094 410.941406 422.351562 410.109375 441.9375 C 399.882812 445.472656 389.128906 447.914062 377.972656 449.125 C 384.746094 400.410156 401.113281 363.714844 404.457031 325.4375 C 407.238281 293.65625 394.339844 199.621094 386.878906 149.328125 C 402.144531 153.214844 416.761719 159.613281 430.222656 168.042969 C 427.328125 219.308594 421.5625 314.414062 416.03125 365.125 Z M 267.605469 217.960938 C 247.128906 247.113281 231.949219 293.582031 250.570312 313.28125 C 263.207031 326.648438 275.554688 292.074219 293.273438 264.367188 C 315.972656 228.871094 377.273438 195.617188 346.960938 177.96875 C 332.230469 169.394531 288.085938 188.808594 267.605469 217.960938 Z M 283.597656 357.457031 C 280.398438 344.957031 268.15625 335.234375 258.882812 338.128906 C 247.011719 341.832031 240.59375 351.078125 244.054688 365.953125 C 246.296875 375.582031 257.960938 389.152344 269.152344 385.527344 C 280.289062 381.339844 287.304688 371.933594 283.597656 357.457031 Z M 283.597656 357.457031 " fill-opacity="1" fill-rule="nonzero"/></svg>