<svg xmlns="http://www.w3.org/2000/svg" xmlns:xlink="http://www.w3.org/1999/xlink" width="1080" zoomAndPan="magnify" viewBox="0 0 810 809.999993" height="1080" preserveAspectRatio="xMidYMid meet" version="1.0"><defs><clipPath id="331b1560d6"><path d="M 182 132.027344 L 653.433594 132.027344 L 653.433594 463 L 182 463 Z M 182 132.027344 " clip-rule="nonzero"/></clipPath><clipPath id="1ed666656d"><path d="M 156.933594 157 L 615 157 L 615 678 L 156.933594 678 Z M 156.933594 157 " clip-rule="nonzero"/></clipPath></defs><g clip-path="url(#331b1560d6)"><path fill="#f3ea58" d="M 218.371094 351.4375 C 233.820312 360.441406 252.050781 363.515625 269.675781 363.441406 C 276.578125 363.441406 283.480469 362.839844 290.378906 362.015625 C 293.382812 366.140625 296.605469 370.117188 300.132812 373.71875 C 319.636719 393.894531 347.464844 404.773438 374.84375 411.597656 C 398.171875 425.550781 428.175781 430.277344 454.878906 427.800781 C 460.054688 427.351562 465.230469 426.75 470.40625 426.074219 C 477.007812 432.527344 484.285156 438.300781 492.6875 443.703125 C 510.089844 454.953125 530.191406 460.878906 550.820312 462.082031 C 587.050781 464.105469 623.65625 441.078125 639.484375 408.746094 C 654.183594 378.742188 658.085938 344.089844 645.484375 312.507812 C 641.957031 303.65625 638.28125 294.65625 633.332031 286.480469 C 628.082031 277.851562 621.628906 269.828125 615.253906 261.949219 C 615.03125 261.652344 614.804688 261.425781 614.578125 261.125 C 614.804688 260.75 615.03125 260.375 615.179688 260.074219 C 619.605469 251.75 622.003906 242.746094 622.378906 233.371094 C 622.679688 226.09375 621.105469 219.269531 617.804688 212.96875 C 615.703125 206.441406 612.027344 200.742188 606.851562 195.941406 C 592.226562 177.5625 569.199219 166.3125 547.371094 159.261719 C 527.042969 152.660156 505.0625 150.109375 483.910156 148.007812 C 464.933594 146.132812 445.804688 145.984375 426.824219 147.632812 C 417.675781 148.457031 408.898438 149.660156 400.570312 152.285156 C 398.773438 151.007812 396.972656 149.734375 395.097656 148.535156 C 379.644531 138.558594 362.542969 134.882812 344.613281 132.855469 C 316.859375 129.78125 286.40625 139.15625 263 153.859375 C 239.972656 168.335938 220.542969 188.140625 206.59375 211.46875 C 199.617188 223.09375 194.140625 235.996094 189.941406 248.824219 C 188.515625 253.25 187.316406 257.824219 186.414062 262.402344 C 184.613281 271.328125 182.8125 280.628906 182.890625 289.703125 C 183.113281 315.132812 196.089844 338.613281 218.21875 351.515625 Z M 218.371094 351.4375 " fill-opacity="1" fill-rule="nonzero"/></g><g clip-path="url(#1ed666656d)"><path fill="#4a6b5d" d="M 243.421875 260.75 C 243.574219 260.375 247.324219 259.023438 248.597656 256.476562 C 275.679688 202.316406 309.660156 184.089844 365.089844 164.136719 C 394.496094 153.558594 447.304688 158.433594 478.882812 162.710938 C 513.914062 167.511719 560.644531 198.191406 581.574219 226.695312 C 604.902344 258.425781 627.632812 347.464844 606.253906 382.417969 C 605.128906 384.292969 604.003906 397.421875 601.976562 403.796875 C 590.949219 438.902344 575.347656 455.554688 555.019531 483.910156 C 547.746094 494.035156 539.566406 512.5625 530.339844 521.339844 C 528.015625 523.589844 525.242188 521.039062 525.089844 521.265625 C 522.539062 525.539062 527.339844 537.542969 527.265625 541.367188 C 527.265625 542.644531 518.566406 552.019531 517.140625 563.421875 C 513.089844 594.402344 520.363281 631.382812 531.542969 660.035156 C 529.890625 669.414062 522.691406 676.6875 516.613281 666.410156 C 510.765625 656.511719 514.738281 651.410156 513.839844 644.359375 C 513.390625 641.132812 507.914062 634.90625 506.5625 630.554688 C 500.789062 611.054688 505.738281 588.851562 503.863281 569.195312 C 503.414062 564.695312 499.210938 558.09375 499.585938 556.59375 C 500.113281 554.496094 504.613281 554.417969 505.886719 551.644531 C 513.464844 534.316406 512.488281 518.488281 525.464844 499.136719 C 543.320312 472.582031 566.195312 448.804688 581.199219 420.449219 C 584.726562 413.699219 583.300781 404.921875 584.949219 399.597656 C 586.601562 394.269531 588.324219 396.519531 589 394.121094 C 610.078125 313.632812 593.277344 233.296875 516.464844 191.664062 C 504.011719 184.914062 500.9375 184.3125 488.109375 181.613281 C 433.953125 170.285156 361.640625 169.6875 314.085938 202.242188 C 299.382812 212.292969 264.277344 248.597656 260.601562 265.101562 C 244.847656 285.429688 247.472656 314.609375 239.597656 339.0625 C 238.621094 342.0625 235.847656 341.6875 235.171875 343.636719 C 229.996094 357.363281 232.023438 360.367188 221.21875 374.09375 C 217.09375 379.34375 208.542969 390.144531 204.417969 394.644531 C 192.492188 407.847656 173.511719 416.25 171.039062 435.902344 C 178.3125 437.101562 184.238281 442.503906 191.515625 444.226562 C 199.839844 446.179688 228.945312 446.480469 231.945312 450.753906 C 235.996094 456.53125 226.769531 492.535156 228.644531 502.136719 C 248.824219 502.585938 267.050781 492.308594 286.253906 487.210938 C 286.929688 508.363281 281.152344 504.6875 266.976562 509.5625 C 258.800781 512.339844 247.773438 517.140625 238.171875 517.363281 C 234.570312 517.363281 231.796875 516.390625 228.570312 514.964844 L 233.371094 562.972656 C 237.722656 566.121094 239.148438 572.574219 243.722656 575.496094 C 252.425781 581.050781 282.652344 584.5 293.679688 584.273438 C 306.808594 583.972656 316.933594 580.523438 331.9375 583.449219 C 358.117188 588.476562 357.964844 641.207031 356.691406 661.386719 C 356.164062 669.789062 356.464844 679.6875 347.238281 677.4375 C 342.4375 676.238281 342.511719 633.632812 341.3125 625.378906 C 339.511719 613.152344 338.011719 595 323.085938 594.625 C 319.484375 594.550781 314.910156 598.226562 308.609375 598.527344 C 289.105469 599.425781 242.523438 598.527344 229.171875 582.773438 C 209.519531 559.820312 215.742188 490.585938 219.945312 461.78125 C 209.667969 467.632812 160.085938 450.753906 158.058594 443.179688 C 150.859375 416.398438 179.890625 402.296875 194.367188 385.34375 C 232.996094 340.261719 222.644531 307.933594 243.5 261.050781 Z M 243.421875 260.75 " fill-opacity="1" fill-rule="nonzero"/></g><path fill="#4a6b5d" d="M 450.453125 196.691406 C 454.878906 196.914062 458.78125 195.867188 463.207031 197.816406 C 470.183594 200.890625 480.308594 218.519531 485.558594 222.496094 C 489.085938 225.195312 491.5625 224.21875 495.3125 224.445312 C 499.0625 224.671875 499.0625 222.871094 501.914062 223.46875 C 508.289062 224.746094 517.964844 232.621094 525.765625 232.996094 C 533.117188 244.472656 540.46875 254.523438 541.894531 268.851562 C 542.492188 274.851562 538.742188 279.726562 541.59375 285.878906 C 543.769531 290.605469 549.84375 288.429688 552.546875 291.128906 C 555.246094 293.832031 563.273438 314.683594 563.570312 317.609375 C 564.546875 327.210938 559.371094 354.363281 555.171875 363.289062 C 554.496094 364.640625 538.367188 386.019531 537.167969 386.917969 C 534.167969 389.167969 528.765625 389.394531 524.867188 391.71875 C 521.714844 393.59375 520.738281 397.195312 518.414062 398.097656 C 514.289062 399.746094 500.035156 400.945312 498.011719 404.246094 C 492.984375 412.273438 503.113281 426.527344 492.234375 438.003906 C 480.683594 450.152344 473.109375 440.027344 465.605469 442.277344 C 450.679688 437.777344 455.78125 422.023438 454.128906 412.347656 C 452.480469 402.671875 450.003906 402.371094 448.503906 397.421875 C 447.605469 394.421875 444.828125 379.117188 444.003906 378.441406 C 443.179688 377.769531 435.152344 378.441406 431.328125 377.242188 C 420.824219 374.015625 418.726562 362.015625 404.773438 361.039062 C 397.945312 360.515625 392.546875 363.589844 387.59375 363.441406 C 386.019531 363.441406 370.640625 359.765625 366.816406 359.015625 C 365.992188 358.867188 353.691406 350.539062 353.089844 349.9375 C 351.066406 348.0625 351.589844 343.636719 349.9375 342.363281 C 345.964844 339.363281 331.035156 340.488281 326.910156 339.8125 C 309.660156 337.113281 293.003906 312.507812 290.832031 295.78125 C 290.304688 291.65625 290.15625 286.253906 290.605469 282.203125 C 291.207031 276.652344 300.808594 247.546875 303.957031 244.324219 C 307.109375 241.097656 315.734375 237.722656 317.308594 237.421875 C 323.835938 236.148438 336.585938 240.046875 337.414062 239.445312 C 338.238281 238.847656 343.039062 227.894531 346.488281 223.769531 C 355.867188 212.667969 360.742188 212.21875 372.144531 206.890625 C 376.945312 204.640625 379.269531 200.140625 385.792969 199.617188 C 397.347656 198.714844 409.347656 206.890625 415.800781 206.96875 C 419.324219 206.96875 434.101562 195.941406 450.605469 196.765625 Z M 525.164062 288.503906 C 524.867188 286.179688 522.765625 282.429688 522.914062 281.226562 C 523.140625 279.203125 527.339844 279.429688 528.390625 277.851562 C 530.640625 274.628906 524.039062 250.925781 520.964844 247.25 C 520.363281 246.574219 505.738281 240.046875 504.238281 239.746094 C 490.285156 236.972656 485.636719 249.875 473.707031 229.847656 C 470.40625 224.371094 472.808594 220.84375 466.058594 216.117188 C 455.78125 208.917969 437.703125 207.042969 427.277344 215.070312 C 421.5 219.570312 421.050781 232.769531 405.523438 224.445312 C 406.046875 216.945312 392.621094 210.492188 385.644531 212.367188 C 384.070312 212.816406 365.84375 220.621094 364.941406 221.292969 C 364.042969 221.96875 350.613281 240.796875 349.789062 242.371094 C 346.339844 249.125 349.5625 260.675781 336.363281 256.101562 C 333.886719 255.273438 326.6875 241.621094 317.835938 251.523438 C 311.457031 258.726562 304.332031 290.980469 306.433594 300.804688 C 308.53125 310.484375 317.609375 319.632812 326.535156 323.386719 C 328.710938 324.285156 330.4375 322.484375 330.738281 322.558594 C 332.386719 323.011719 334.410156 326.160156 338.164062 325.933594 C 341.914062 325.710938 349.640625 319.710938 352.941406 320.609375 C 355.191406 321.210938 358.640625 332.835938 363.816406 337.488281 C 369.292969 342.4375 376.792969 345.136719 384.070312 346.039062 C 388.570312 346.636719 396.445312 346.414062 401.171875 346.039062 C 409.347656 345.363281 415.425781 344.089844 422.476562 339.585938 C 423.449219 345.289062 428.175781 359.464844 433.203125 361.867188 C 439.652344 365.015625 449.628906 360.964844 456.15625 367.792969 L 466.058594 423 C 485.484375 445.277344 480.460938 420.222656 482.484375 407.097656 C 487.359375 375.066406 493.210938 390.144531 513.988281 380.992188 C 533.71875 372.292969 539.269531 358.265625 544.070312 339.585938 C 544.21875 338.988281 547.292969 337.035156 547.894531 333.960938 C 550.070312 322.933594 547.894531 318.882812 544.070312 309.734375 C 538.894531 297.207031 539.867188 302.832031 533.417969 296.90625 C 532.96875 296.457031 530.417969 289.78125 524.867188 288.355469 Z M 525.164062 288.503906 " fill-opacity="1" fill-rule="nonzero"/><path fill="#4a6b5d" d="M 274.703125 361.566406 C 290.832031 359.164062 281.378906 401.171875 268.175781 397.269531 C 263.152344 395.769531 260 363.742188 274.703125 361.566406 Z M 274.703125 361.566406 " fill-opacity="1" fill-rule="nonzero"/><path fill="#4a6b5d" d="M 466.957031 295.480469 C 472.957031 301.40625 465.757812 307.632812 460.132812 310.109375 C 457.355469 311.308594 441.828125 312.058594 438.679688 311.53125 C 417.300781 308.082031 410.097656 286.253906 382.34375 294.128906 C 377.695312 295.480469 377.394531 299.230469 376.492188 299.304688 C 373.492188 299.53125 370.566406 296.90625 368.390625 296.90625 C 366.21875 296.90625 365.992188 306.957031 362.390625 298.632812 C 357.367188 287.003906 376.71875 281.078125 385.945312 278.378906 C 388.496094 277.628906 391.722656 279.578125 396.445312 278.378906 C 403.199219 276.652344 407.546875 266 413.023438 267.125 C 419.699219 268.476562 414 280.554688 414.523438 282.953125 C 415.875 288.878906 444.679688 298.257812 451.355469 296.980469 C 456.230469 296.082031 460.65625 289.253906 466.957031 295.480469 Z M 466.957031 295.480469 " fill-opacity="1" fill-rule="nonzero"/><path fill="#4a6b5d" d="M 518.640625 331.335938 C 519.316406 332.011719 518.488281 335.988281 518.789062 337.636719 C 523.066406 335.160156 523.589844 334.1875 523.066406 339.738281 C 507.6875 340.1875 498.386719 355.789062 482.785156 354.363281 L 474.007812 334.410156 C 478.433594 329.386719 478.207031 337.785156 479.410156 337.785156 C 483.757812 337.636719 485.558594 331.785156 487.808594 339.8125 C 490.4375 334.488281 516.839844 329.6875 518.640625 331.410156 Z M 518.640625 331.335938 " fill-opacity="1" fill-rule="nonzero"/></svg>