<svg xmlns="http://www.w3.org/2000/svg" xmlns:xlink="http://www.w3.org/1999/xlink" width="1080" zoomAndPan="magnify" viewBox="0 0 810 809.999993" height="1080" preserveAspectRatio="xMidYMid meet" version="1.0"><defs><clipPath id="f462e4f06b"><path d="M 155.460938 92 L 654 92 L 654 716 L 155.460938 716 Z M 155.460938 92 " clip-rule="nonzero"/></clipPath></defs><path fill="#f3ea58" d="M 313.871094 361.175781 C 310.40625 364.03125 308.945312 367.359375 307.347656 370.5625 C 306.382812 372.511719 307.132812 373.742188 309.316406 374.15625 C 312.722656 374.789062 314.453125 373.734375 314.523438 370.324219 C 314.582031 367.519531 315.371094 364.617188 313.871094 361.175781 Z M 391.40625 339.738281 C 361.09375 348.679688 359.375 347.367188 349.539062 358.800781 C 331.78125 379.457031 387.136719 349.535156 391.40625 339.738281 Z M 566.457031 334.386719 C 587.082031 291.6875 579.042969 246.523438 528.375 225.28125 C 527.460938 224.902344 526.457031 225.003906 525.460938 226.152344 C 525.933594 229.632812 528.574219 232.5 529.570312 235.964844 C 533.722656 250.390625 549.164062 251.738281 556.125 273.910156 C 569.058594 315.140625 564.550781 321.800781 566.457031 334.386719 Z M 518.589844 441.203125 C 500.480469 454.972656 486.351562 481.5625 416.664062 510.898438 C 378.460938 526.976562 318.574219 543.4375 282.902344 522.824219 C 261.636719 510.535156 261.761719 499.171875 250.816406 494.3125 C 232.566406 486.203125 219.0625 473.105469 210.910156 454.855469 C 204.609375 440.757812 197.613281 426.890625 195.433594 411.285156 C 191.601562 383.863281 196.890625 382.222656 192.628906 374.167969 C 165.523438 322.9375 189.601562 270.238281 228.039062 226.863281 C 302.839844 142.464844 415.203125 139.5625 468.082031 175.988281 C 485.015625 187.648438 591.210938 185.253906 606.0625 276.136719 C 615.953125 336.636719 568.199219 403.476562 518.589844 441.203125 " fill-opacity="1" fill-rule="nonzero"/><g clip-path="url(#f462e4f06b)"><path fill="#4a6b5d" d="M 636.566406 278.785156 C 651.378906 272.085938 653.605469 276.820312 653.972656 272.863281 C 654.609375 265.992188 633.800781 267.171875 622.527344 271.683594 C 620.003906 272.695312 615.613281 272.839844 616.089844 276.441406 C 616.597656 280.308594 621.921875 280.816406 625.9375 281.242188 C 629.785156 281.746094 633.183594 280.3125 636.566406 278.785156 Z M 155.710938 254.320312 C 155.496094 263.800781 159.542969 261.757812 164.574219 263.808594 C 174.152344 267.703125 184 270.324219 190.792969 273.183594 C 192.632812 274.582031 197.441406 275.132812 199.207031 274.414062 C 203.648438 272.609375 200.078125 265.503906 192.117188 261.46875 C 182.140625 256.40625 171.996094 255.28125 161.980469 251.023438 C 160.5625 250.417969 155.789062 250.785156 155.710938 254.320312 Z M 599.097656 426.027344 C 598.007812 429.292969 602.023438 430.632812 603.914062 432.71875 C 603.996094 432.8125 637.976562 461.046875 643.253906 452.164062 C 644.714844 449.703125 642.375 448.085938 640.882812 446.617188 C 622.402344 428.460938 618.847656 423.691406 606.945312 423.242188 C 604.96875 423.777344 600.503906 421.820312 599.097656 426.027344 Z M 575.8125 542.765625 C 577.886719 538.730469 573.054688 540.578125 564.828125 529.257812 C 555.417969 516.3125 553.351562 510.964844 541.984375 511.3125 C 536.71875 511.472656 535.433594 513.777344 537.726562 518.417969 C 539.679688 522.363281 541.933594 526.171875 544.925781 529.433594 C 552.019531 537.160156 572.609375 548.992188 575.8125 542.765625 Z M 406.484375 136.335938 C 407.289062 141.597656 411.085938 144.589844 416.320312 144.488281 C 428.472656 144.261719 421.082031 115.820312 423.273438 100.265625 C 424.109375 94.332031 417.15625 91.664062 411.441406 93.378906 C 405.855469 95.046875 406.585938 102.628906 406.058594 114.105469 C 405.152344 121.566406 405.363281 129.003906 406.484375 136.335938 Z M 178.316406 411.730469 C 174.007812 415.066406 160.003906 428.21875 162.433594 433.214844 C 164.527344 437.519531 174.09375 439.617188 178.800781 433.664062 C 183.011719 428.335938 194.5 417.332031 201.085938 418.992188 C 206.445312 420.339844 209.492188 413.035156 203.65625 409.546875 C 196.0625 405.007812 186.429688 405.441406 178.316406 411.730469 Z M 286.230469 170.375 C 279.804688 152.074219 267.527344 147.8125 263.511719 134.609375 C 261.925781 129.394531 259.324219 127.636719 253.878906 127.859375 C 237.160156 128.542969 258.542969 152.277344 272.644531 171.265625 C 274.929688 174.347656 278.3125 175.898438 282.242188 175.988281 C 287.011719 176.210938 287.886719 175.09375 286.230469 170.375 Z M 579.460938 138.703125 C 582.019531 137.140625 581.90625 135.453125 579.136719 133.960938 C 559.515625 123.429688 514.605469 169.136719 542.640625 171.132812 C 550.777344 172.777344 556.078125 152.992188 579.460938 138.703125 Z M 378.582031 702.8125 C 378.859375 700.84375 380.925781 701.46875 363.21875 698.496094 C 360.277344 698.003906 360.289062 700.929688 362.210938 702.007812 C 365.722656 703.980469 375.050781 703.648438 378.582031 702.8125 Z M 397.566406 378.703125 C 407.859375 364.59375 407.976562 332.515625 396.375 327.046875 C 391.796875 336.546875 392.492188 366.539062 397.566406 378.703125 Z M 440.570312 417.398438 C 457.910156 413.414062 487.472656 384.21875 474.335938 374.652344 C 461.765625 365.503906 438.148438 411.234375 440.570312 417.398438 Z M 340.089844 420.0625 C 340.507812 404.785156 322.765625 353.496094 313.445312 373.074219 C 299.210938 402.960938 340.433594 430.734375 340.089844 420.0625 Z M 426.726562 684.070312 C 445.359375 664.59375 403.167969 679.527344 360.265625 670.503906 C 336.59375 665.523438 331.085938 660.976562 327.308594 671.308594 C 325.921875 675.09375 326.816406 676.933594 331.578125 679.097656 C 351.234375 688.015625 415.03125 696.292969 426.726562 684.070312 Z M 444.496094 652.222656 C 434.980469 650.1875 427.625 647.191406 419.226562 647.34375 C 405.027344 647.605469 390.761719 648.753906 376.578125 646.703125 C 334.828125 640.675781 333.414062 639.976562 326.285156 640.355469 C 322.167969 640.574219 318.46875 646.585938 324.367188 649.601562 C 351.9375 663.6875 390.3125 663.820312 421.117188 660.882812 C 428.839844 660.148438 436.253906 657.296875 444.496094 652.222656 Z M 326.128906 628.324219 C 358.222656 639.554688 408.597656 637.144531 421.875 636.71875 C 429.425781 636.472656 434.097656 632.3125 437.382812 626.078125 C 439.492188 622.070312 439.113281 621.140625 434.679688 620.0625 C 412.792969 614.753906 399.3125 615.269531 355.566406 617.023438 C 343.902344 617.492188 330.097656 618.558594 326.128906 628.324219 Z M 375.335938 604.734375 C 383.585938 605.210938 381.1875 603.425781 383.855469 587.046875 C 387.296875 565.976562 406.53125 474.496094 409.203125 463.890625 C 420.453125 419.238281 421.117188 423.769531 413.464844 420.453125 C 397.945312 413.71875 398.980469 407.253906 392.230469 413.519531 C 384.175781 421 374.605469 425.824219 363.929688 428.507812 C 357.769531 430.046875 357.695312 430.148438 358.328125 436.222656 C 363.136719 482.367188 368.222656 512.871094 369.632812 551.835938 C 371.609375 606.335938 370.003906 605.246094 375.335938 604.734375 Z M 357.160156 421.863281 C 369.550781 418.125 379.058594 410.867188 386.65625 400.835938 C 388.101562 398.925781 387.285156 397.179688 386.320312 395.367188 C 376.667969 377.222656 375.128906 347 378.542969 329.855469 C 380.273438 321.148438 384.53125 317.710938 393.308594 317.632812 C 422.300781 317.402344 429.21875 355.664062 409.652344 391.695312 C 405.902344 398.589844 402.546875 401.972656 417.023438 411.9375 C 426.316406 418.339844 418.511719 408.03125 442.179688 378.945312 C 451.609375 367.359375 463.582031 364.078125 477.773438 367.546875 C 493.75 371.460938 498.125 382.054688 488.378906 395.328125 C 459.804688 434.226562 438.160156 418.285156 435.015625 430.824219 C 433.53125 436.773438 414.140625 506.230469 397.535156 599.625 C 397.019531 602.515625 397.605469 604.421875 401.058594 604.523438 C 418.523438 605.042969 420.589844 609.382812 421.894531 602.4375 C 429.242188 563.289062 447.546875 559.011719 508.914062 485.039062 C 525.636719 464.878906 559.527344 420.570312 566.386719 388.296875 C 574.589844 349.699219 580.867188 291.441406 558.121094 259.207031 C 538.898438 231.972656 503.667969 201.953125 472.507812 198.691406 C 365.296875 187.464844 235.417969 229.140625 228.714844 337.492188 C 224.890625 399.335938 247.789062 477.085938 295.574219 518.105469 C 322.40625 541.140625 343.742188 566.664062 346.105469 602.09375 C 346.390625 606.363281 349.355469 605.417969 351.984375 605.492188 C 355.210938 605.59375 356.160156 604.179688 356.011719 601.023438 C 350.421875 478.445312 354.917969 555.828125 342.988281 441.882812 C 342.632812 438.492188 343.238281 434.652344 341.289062 431.824219 C 339.050781 428.566406 334.667969 429.355469 331.253906 428.394531 C 305.789062 421.222656 287.648438 396.039062 296.863281 371.898438 C 303.265625 355.140625 330.214844 357.375 342.144531 375.410156 C 353.488281 392.566406 353.875 414.277344 357.160156 421.863281 Z M 451.480469 643.234375 C 499.316406 656.664062 444.585938 666.792969 450.339844 670.855469 C 457.957031 676.230469 457.863281 681.394531 451.449219 689.542969 C 441.75 701.871094 425.25 698.367188 425.523438 703.582031 C 426.007812 712.667969 413.28125 715.964844 405.925781 715.339844 C 384.980469 713.550781 371.570312 718.164062 352.832031 710.339844 C 332.675781 701.917969 342.835938 694.445312 330.152344 690.933594 C 322.753906 688.886719 312.304688 683.675781 308.347656 680.507812 C 294.1875 669.171875 309.5 659.144531 310.402344 656.136719 C 304.261719 651.199219 291.894531 643.9375 303.136719 634.890625 C 312.207031 627.589844 299.960938 626.503906 310.449219 615.992188 C 320.515625 605.902344 331.339844 612.515625 328.761719 600.382812 C 311.9375 521.253906 258.152344 534.414062 223.789062 441.351562 C 178.804688 319.550781 227.183594 242.816406 297.800781 214.308594 C 365.417969 187.007812 465.96875 171.65625 527.007812 210.019531 C 597.351562 254.238281 607.691406 311.066406 587.71875 393.792969 C 575.796875 443.175781 511.335938 512.492188 476.707031 551.5 C 451.140625 580.300781 451.757812 587.984375 443.738281 608.222656 C 441.75 613.25 449.074219 611.207031 457.648438 617.863281 C 470.359375 627.742188 451.773438 639.722656 451.480469 643.234375 " fill-opacity="1" fill-rule="nonzero"/></g></svg>